<svg id="Layer_1" data-name="Layer 1" xmlns="http://www.w3.org/2000/svg" viewBox="0 0 100 100"><defs><style>.cls-1{fill:none;}.cls-2{fill:#333;}</style></defs><title>crud</title><rect class="cls-1" x="6.25" y="43.75" width="25" height="18.75"/><path class="cls-1" d="M6.25,84.38A3.12,3.12,0,0,0,9.38,87.5H31.25V68.75h-25Z"/><rect class="cls-1" x="6.25" y="18.75" width="25" height="18.75"/><path class="cls-1" d="M68.75,87.5H90.63a3.12,3.12,0,0,0,3.13-3.12V68.75h-25Z"/><rect class="cls-1" x="68.75" y="43.75" width="25" height="18.75"/><rect class="cls-1" x="37.5" y="18.75" width="25" height="18.75"/><rect class="cls-1" x="37.5" y="68.75" width="25" height="18.75"/><rect class="cls-1" x="37.5" y="43.75" width="25" height="18.75"/><rect class="cls-1" x="68.75" y="18.75" width="25" height="18.75"/><path class="cls-2" d="M90.63,6.25H9.38A9.37,9.37,0,0,0,0,15.63V84.38a9.37,9.37,0,0,0,9.38,9.38H90.63A9.37,9.37,0,0,0,100,84.38V15.63A9.37,9.37,0,0,0,90.63,6.25ZM31.25,87.5H9.38a3.12,3.12,0,0,1-3.12-3.12V68.75h25Zm0-25h-25V43.75h25Zm0-25h-25V18.75h25Zm31.25,50h-25V68.75h25Zm0-25h-25V43.75h25Zm0-25h-25V18.75h25ZM93.75,84.38a3.12,3.12,0,0,1-3.12,3.13H68.75V68.75h25Zm0-21.87h-25V43.75h25Zm0-25h-25V18.75h25Z"/></svg>