<?xml version="1.0" encoding="utf-8"?>
<!-- Svg Vector Icons : http://www.onlinewebfonts.com/icon -->
<!DOCTYPE svg PUBLIC "-//W3C//DTD SVG 1.1//EN" "http://www.w3.org/Graphics/SVG/1.1/DTD/svg11.dtd">
<svg version="1.1" xmlns="http://www.w3.org/2000/svg" xmlns:xlink="http://www.w3.org/1999/xlink" x="0px" y="0px" viewBox="0 0 256 256" enable-background="new 0 0 256 256" xml:space="preserve">
<metadata> Svg Vector Icons : http://www.onlinewebfonts.com/icon </metadata>
<g><g><g><path fill="#000000" d="M122.6,12.6c-26.5,3-51.2,18.6-66.5,42l-2.6,3.9l-1.4-1c-3.8-2.8-6.8-8.4-9-17.4c-1-4.4-1.1-4.4-2-3.6c-1.3,1.2-4.2,5.5-5.8,8.7c-3.6,7-5,14.1-5.2,24.6L30,77.6l-1.4,1.5c-4.3,4.6-11.3,15.4-13.3,20.7c-2.2,5.7-5.9,21.9-5.1,22.7c0.1,0.1,2.3-2.1,4.9-5c2.6-2.8,4.7-5.1,4.8-5.1c0,0-0.4,1.8-1.1,3.8c-1.8,5.5-2.9,11.6-3.5,17.8c-0.6,6.5-0.6,17.4-0.1,16.7c0.2-0.2,1.5-2.8,2.8-5.6l2.3-5.2l0.3,1.8c0.2,1,0.6,3.7,0.9,5.9c3.6,26.1,20.5,55.1,42.6,72.7c16.2,12.9,36.9,21.2,58.2,23.1c31.5,2.9,63.5-9,87.1-32.4c19.9-19.7,32.1-48.3,36-85c0.7-6.4,1.1-27.6,0.6-32.2l-0.4-3.8l-2.6,6c-1.4,3.3-2.7,5.9-2.8,5.7c-0.2-0.2-0.7-3.4-1.1-7.2c-2.5-21-5.5-32.7-10.7-41.3c-2.2-3.7-5.7-8.6-6-8.4c0,0,0.6,3.6,1.5,7.9c0.9,4.3,1.6,8,1.5,8.2c-0.1,0.2-2-1.8-4.3-4.3c-4.5-5-10.9-10.9-15.1-13.8c-1.4-0.9-4.6-2.8-7.1-4c-2.6-1.3-5.9-3.5-8.1-5.4C172.1,17.7,146.8,9.9,122.6,12.6z M147.5,26.2c9.2,1.9,17.2,5,24.9,9.6c5.9,3.5,11,7.4,10.1,7.7c-0.4,0.1-4.2,0.8-8.6,1.5c-4.4,0.7-7.9,1.4-7.7,1.5c0.1,0.1,2.2,1,4.7,2c6.3,2.5,14.8,7,20.1,10.4c8.3,5.5,13.4,11.3,16.2,18.3c1.6,3.9,4.9,16.3,4.6,16.7c-0.1,0.1-2-1.2-4.1-3c-2.3-1.8-3.8-2.8-3.6-2.3c2.6,6.3,3.4,13.3,2.7,22.6c-0.7,8.7-2,18.9-2.5,18.9c-0.2,0-1.9-1.9-3.8-4.2c-1.9-2.4-3.6-4.3-3.7-4.3c-0.1,0-0.2,4.2-0.1,9.3c0.2,10.3-0.3,16-2.1,22.9c-1.3,5.2-5.1,13.1-7.6,15.9l-1.7,1.9l0.2-3.8c0.1-2.1,0.4-5.7,0.6-8.1l0.3-4.3l-2.9,4.5c-6,9.2-16.3,17.9-26.3,22.2c-6.6,2.9-11,3.9-17.1,4c-7.9,0-14.5-1.6-22.4-5.5c-4.1-2-12.5-7.4-15.3-9.9l-1.7-1.5l3.1,0.4c9.9,1.2,16-0.4,28.6-7.6c8.6-5,15.1-7.4,19.6-7.4c2.4,0,2.9-0.9,2-3.7c-1.3-3.9-5-7.9-9.1-9.9c-5.1-2.3-11.2-1.8-24.5,1.8c-5.7,1.6-7.7,1.9-11.2,1.9c-6,0-8.9-1.2-13.1-5.4c-3.4-3.5-5.3-6.8-6-11c-0.9-4.6,0.3-7.5,3.4-8.7c2.3-0.9,5.6-0.7,9.7,0.5l2.1,0.7l-0.3-9.8l-0.3-9.8l4.6-3.1c6-3.9,13-9.6,15.9-12.8c4.3-4.6,2.8-6-7.7-7.6c-9-1.4-13.8-3.8-18.1-9.2l-1.9-2.5l0.2-3.6c0.3-5.4,2.2-8.3,8.8-13.8c4.1-3.5,4-3.7-1.9-2.8c-7.4,1.1-14.9,4.1-21.8,8.8l-3.6,2.5L75.5,57c-6-0.8-5.9-0.6-2-5c12.1-13.9,29.6-23.6,48-26.4C127.8,24.6,141.5,25,147.5,26.2z"/></g></g></g>
</svg>