<svg id="Layer_1" data-name="Layer 1" xmlns="http://www.w3.org/2000/svg" viewBox="0 0 100 100"><defs><style>.cls-1{fill:#333;}</style></defs><title>heart</title><path class="cls-1" d="M90.3,15.25C79.65,6.18,63.73,7.69,53.85,17.88l-3.85,4-3.85-4c-8-8.24-24-13.2-36.45-2.66A28,28,0,0,0,6.76,54.71q.49.57,1,1.12l37.79,39A6.15,6.15,0,0,0,50,96.75a6.07,6.07,0,0,0,4.41-1.89l37.79-39a28,28,0,0,0-.78-39.59Q90.87,15.74,90.3,15.25ZM87.74,51.5l-37.66,39-37.81-39C4.77,43.76,3.21,29,13.77,20s23.28-2.52,27.89,2.25L50,30.87l8.34-8.61C62.87,17.57,75.57,10.93,86.23,20s9,23.73,1.5,31.48Z"/></svg>