<svg id="Layer_1" data-name="Layer 1" xmlns="http://www.w3.org/2000/svg" viewBox="0 0 100 100"><defs><style>.cls-1{fill:none;}.cls-2{fill:#333;}</style></defs><title>illustrator</title><path class="cls-1" d="M24.67,69.38h6.13c.42,0,.54-.08.63-.42l3.29-12.5H48L51.46,69c.08.29.29.38.63.38H59c.33,0,.42-.21.33-.54l-13.25-45c-.08-.33-.21-.42-.5-.42H36.83c-.21,0-.33.13-.33.42a13.48,13.48,0,0,1-.42,3.46L24.25,68.75C24.17,69.25,24.25,69.38,24.67,69.38ZM41.25,30.13h.08c1,4.88,3.79,15,5,19.58H36.42C38.17,43.25,40.38,35,41.25,30.13Z"/><path class="cls-1" d="M72.58,35.5H66c-.37,0-.5.17-.5.5h0V68.83c0,.33.13.54.54.54h6.46c.42,0,.5-.17.5-.5V36C73.08,35.63,72.92,35.5,72.58,35.5Z"/><path class="cls-1" d="M69.21,30.79a4,4,0,0,0,4.33-4.25,4.25,4.25,0,1,0-8.5,0A3.92,3.92,0,0,0,69.21,30.79Z"/><path class="cls-2" d="M41.33,30.13h-.08c-.87,4.88-3.08,13.13-4.83,19.58h9.88C45.13,45.08,42.38,35,41.33,30.13Z"/><path class="cls-2" d="M0,100H100V0H0ZM73.08,68.88c0,.33-.08.5-.5.5H66.13c-.42,0-.54-.21-.54-.54V36h0c0-.33.13-.5.5-.5h6.54c.33,0,.5.13.5.5ZM69.29,22.29a4,4,0,0,1,4.25,4.25,4,4,0,0,1-4.33,4.25A3.92,3.92,0,0,1,65,26.54,4,4,0,0,1,69.29,22.29Zm-45,46.46L36.08,27.33a13.48,13.48,0,0,0,.42-3.46c0-.29.13-.42.33-.42h8.75c.29,0,.42.08.5.42l13.25,45c.08.33,0,.54-.33.54H52.08c-.33,0-.54-.08-.62-.37L48,56.46H34.71L31.42,69c-.08.33-.21.42-.62.42H24.67C24.25,69.38,24.17,69.25,24.25,68.75Z"/></svg>