<?xml version="1.0" encoding="utf-8"?>
<!-- Svg Vector Icons : http://www.onlinewebfonts.com/icon -->
<!DOCTYPE svg PUBLIC "-//W3C//DTD SVG 1.1//EN" "http://www.w3.org/Graphics/SVG/1.1/DTD/svg11.dtd">
<svg version="1.1" xmlns="http://www.w3.org/2000/svg" xmlns:xlink="http://www.w3.org/1999/xlink" x="0px" y="0px" viewBox="0 0 256 256" enable-background="new 0 0 256 256" xml:space="preserve">
<metadata> Svg Vector Icons : http://www.onlinewebfonts.com/icon </metadata>
<g><g><path fill="#000000" d="M223,200.5c7.4-4,12.3-10.4,20.1-12.9c-21.1,31.2-41.7,55.7-86.3,59c-36.3,2.6-68.5-11.7-90.6-27.3c-5.6-3.9-12.2-8.1-15.8-11.5c-1.2-1.2-0.3-4.5-1.4-5.8c-5.3-5.4-16.5-14.8-21.6-23c-2.4-3.9-3.6-9.8-5.8-14.4c-9.4-19.9-16.6-56.1-7.2-83.5c2.5-7.1,8.7-14.2,12.9-20.1c4.4-6.1,9.1-11.3,12.9-18.7c-1,15.6-7.2,25.4-5.8,46c3.6,49.4,36.6,86.9,72,107.9c0.8,0.5,3.7-0.7,4.3,0c2.4,2.7,8.1,5.5,17.3,8.6C155.4,214.1,198.2,213.8,223,200.5z"/><path fill="#000000" d="M243.1,125.7c-10.3,23-31.1,44.3-71.9,41.7C116.7,163.9,62.9,103.3,86.4,48c2.2-5.1,6.7-9.6,10.1-14.4c3.2-4.5,6.1-9.9,11.5-13c-23.5,48.7,18.7,99.2,56.1,115.1C186.5,145.3,229.1,140.2,243.1,125.7z"/><path fill="#000000" d="M155.4,25c0.5,41.4,50.8,72.4,90.6,51.8c-11.7,30.1-57.5,30.9-83.4,8.6c-21.7-18.7-26.5-53.5-5.8-76.2C160.8,15.2,155.3,19.3,155.4,25z"/></g></g>
</svg>