<svg id="Layer_1" data-name="Layer 1" xmlns="http://www.w3.org/2000/svg" viewBox="0 0 100 100"><defs><style>.cls-1{fill:#333;}</style></defs><title>nette</title><path class="cls-1" d="M75.77,65.81A6.14,6.14,0,0,1,74,65.53q-.89-.28-.89-1.54,3.41-9,7-18a38.48,38.48,0,0,0,3.07-13.36,13,13,0,0,0-1.54-6.48,9,9,0,0,0-4.94-4A19.22,19.22,0,0,0,70,20.89a29.57,29.57,0,0,0-13,3.59A79.42,79.42,0,0,0,39,37.27q1.26-4,3.26-8.84,1.11-2.89,3.44-8.66L20.66,23.92q-3.59,7.62-5.59,12.62a70.63,70.63,0,0,0-4,13A61.42,61.42,0,0,0,10,60.9a79.54,79.54,0,0,0,2.52,19.32l21.83-3.48A88,88,0,0,1,33.8,67a77.79,77.79,0,0,1,1.08-12.76q5.06-5.24,8.89-8.66a92.25,92.25,0,0,1,10-7.37,33.33,33.33,0,0,1,3.44-1.63,6.69,6.69,0,0,0,.18,1.63q-.39.89-5.78,13.54A37.53,37.53,0,0,0,47.83,66a12.68,12.68,0,0,0,2.1,7,14.86,14.86,0,0,0,6.14,5.13,19.44,19.44,0,0,0,8.35,2,34.09,34.09,0,0,0,17.14-5.59q1.75-1,8.29-5.65H90L86.53,62A26.38,26.38,0,0,1,75.77,65.81Z"/></svg>