<svg id="Layer_1" data-name="Layer 1" xmlns="http://www.w3.org/2000/svg" viewBox="0 0 100 100"><defs><style>.cls-1{fill:#333;}</style></defs><title>phpstorm</title><path class="cls-1" d="M23.54,21.3v-.07c0-2.47-1.72-3.8-4.47-3.8H14.82V25.1h4.36C21.94,25.1,23.54,23.45,23.54,21.3Z"/><path class="cls-1" d="M0,0V100H100V0ZM9.3,12.46H19.54c6,0,9.6,3.53,9.6,8.67v.07C29.14,27,24.62,30,19,30H14.82v7.51H9.3Zm37.47,75H9.27V81.26h37.5Zm3.65-57.3c0,5-3.81,7.78-9.23,7.78a16,16,0,0,1-10.65-4h0v0h0l3.26-3.91a11.54,11.54,0,0,0,7.5,3c2.27,0,3.63-.89,3.63-2.35v-.07c0-1.4-.86-2.12-5.07-3.2-5.07-1.29-8.34-2.69-8.34-7.68V19.7c0-4.55,3.67-7.57,8.8-7.57a14.55,14.55,0,0,1,9.34,3.2l-2.87,4.16A11.76,11.76,0,0,0,40.25,17C38.13,17,37,18,37,19.21v.08c0,1.66,1.08,2.2,5.42,3.3,5.1,1.33,8,3.16,8,7.54Z"/></svg>