<svg id="Layer_1" data-name="Layer 1" xmlns="http://www.w3.org/2000/svg" viewBox="0 0 100 100"><defs><style>.cls-1{fill:#333;}</style></defs><title>phpstan</title><path class="cls-1" d="M73.57,20H26.43A6.43,6.43,0,0,0,20,26.43h0V73.57A6.43,6.43,0,0,0,26.43,80H73.57A6.43,6.43,0,0,0,80,73.57h0V26.43A6.43,6.43,0,0,0,73.57,20Zm0,4.29a2.15,2.15,0,0,1,2.14,2.14V73.57a2.15,2.15,0,0,1-2.14,2.14H26.43a2.15,2.15,0,0,1-2.14-2.14V26.43a2.15,2.15,0,0,1,2.14-2.14H73.57M69,37.45l-1.13-1.14a1.61,1.61,0,0,0-2.27,0L43.68,58l-9.23-9.3a1.61,1.61,0,0,0-2.27,0L31,49.82a1.61,1.61,0,0,0,0,2.27L42.5,63.68a1.61,1.61,0,0,0,2.27,0L69,39.72A1.61,1.61,0,0,0,69,37.45Z"/></svg>