<svg id="Layer_1" data-name="Layer 1" xmlns="http://www.w3.org/2000/svg" viewBox="0 0 100 100"><defs><style>.cls-1{fill:none;}.cls-2{fill:#333;}</style></defs><title>python</title><path class="cls-1" d="M36,7.32a4.54,4.54,0,1,0,4.49,4.55A4.53,4.53,0,0,0,36,7.32Z"/><path class="cls-1" d="M63.88,92.12a4.54,4.54,0,1,0-4.49-4.55A4.52,4.52,0,0,0,63.88,92.12Z"/><path class="cls-2" d="M62.39,51.23H38.55A12.16,12.16,0,0,0,26.63,63.35V86.07c0,6.47,5.62,10.27,11.92,12.12a40.11,40.11,0,0,0,23.84,0c6-1.74,11.92-5.25,11.92-12.12V77H50.49v-3H86.25c6.94,0,9.51-4.84,11.92-12.1,2.5-7.48,2.39-14.66,0-24.24-1.72-6.9-5-12.1-11.92-12.1h-9V36.09A15.31,15.31,0,0,1,62.39,51.23ZM63.88,83a4.54,4.54,0,1,1-4.49,4.53A4.51,4.51,0,0,1,63.88,83Z"/><path class="cls-2" d="M16.58,25.51c-6.94,0-13,4.17-14.91,12.1C-.51,46.7-.6,52.36,1.67,61.85c1.7,7.05,5.74,12.1,12.68,12.1h8.19V63.06A15.16,15.16,0,0,1,37.45,48.24H61.29A12,12,0,0,0,73.21,36.12V13.37C73.21,6.9,67.77,2.05,61.29,1A73.58,73.58,0,0,0,37.45,1C27.37,2.77,25.54,6.5,25.54,13.39v9.08H49.4v3ZM36,16.41a4.54,4.54,0,1,1,4.49-4.53A4.51,4.51,0,0,1,36,16.41Z"/></svg>