<svg id="Layer_1" data-name="Layer 1" xmlns="http://www.w3.org/2000/svg" viewBox="0 0 100 100"><defs><style>.cls-1{fill:#333;}</style></defs><title>stopwatch</title><path class="cls-1" d="M83.07,27.6l3.42-3.42a2.35,2.35,0,0,0,0-3.32l-1.11-1.11a2.35,2.35,0,0,0-3.32,0l-3.42,3.42A43.59,43.59,0,0,0,52.91,12.58V6.25h4.88a2.35,2.35,0,0,0,2.34-2.34V2.34A2.35,2.35,0,0,0,57.79,0H42.17a2.35,2.35,0,0,0-2.34,2.34V3.91a2.35,2.35,0,0,0,2.34,2.34h4.49v6.37a43.76,43.76,0,1,0,36.41,15ZM50,93.75a37.5,37.5,0,1,1,37.5-37.5A37.5,37.5,0,0,1,50,93.75Zm.78-25H49.22a2.35,2.35,0,0,1-2.34-2.34V33.59a2.35,2.35,0,0,1,2.34-2.34h1.56a2.35,2.35,0,0,1,2.34,2.34V66.41A2.35,2.35,0,0,1,50.78,68.75Z"/></svg>