<svg id="Layer_1" data-name="Layer 1" xmlns="http://www.w3.org/2000/svg" viewBox="0 0 100 100"><defs><style>.cls-1{fill:#333;}</style></defs><title>tachometer</title><path class="cls-1" d="M20.83,61.11a4.17,4.17,0,1,1-4.17-4.17h0A4.17,4.17,0,0,1,20.83,61.11ZM50,31.94a4.17,4.17,0,1,0-4.17-4.17h0A4.17,4.17,0,0,0,50,31.94Zm23.61,9.72a4.17,4.17,0,1,0-4.17-4.17h0a4.17,4.17,0,0,0,4.16,4.18h0Zm12.46,19a2.78,2.78,0,0,1-2.28,3.2L61,67.65a11,11,0,1,1-.87-5.49l22.74-3.79A2.79,2.79,0,0,1,86.07,60.66Zm-30.52,6A5.56,5.56,0,1,0,50,72.22h0a5.56,5.56,0,0,0,5.56-5.55ZM26.39,33.33a4.17,4.17,0,1,0,4.17,4.17h0A4.17,4.17,0,0,0,26.39,33.33ZM100,61.11a49.74,49.74,0,0,1-6.78,25.14,5.49,5.49,0,0,1-4.76,2.64H11.55a5.49,5.49,0,0,1-4.76-2.64A50,50,0,1,1,100,61.11Zm-5.56,0A44.44,44.44,0,1,0,11.58,83.45l76.88-.12A44,44,0,0,0,94.44,61.11Z"/></svg>