<svg id="Layer_1" data-name="Layer 1" xmlns="http://www.w3.org/2000/svg" viewBox="0 0 100 100"><defs><style>.cls-1{fill:#333;}</style></defs><title>team</title><path class="cls-1" d="M75,50A15,15,0,1,0,60,35,15,15,0,0,0,75,50Zm0-25A10,10,0,1,1,65,35,10,10,0,0,1,75,25ZM30,50A17.5,17.5,0,1,0,12.5,32.5h0A17.49,17.49,0,0,0,30,50Zm0-30A12.5,12.5,0,1,1,17.5,32.5h0A12.52,12.52,0,0,1,30,20ZM42.52,53.13C37.3,53.13,36,55,30,55s-7.3-1.87-12.52-1.87A17.22,17.22,0,0,0,3.06,60.45,17.91,17.91,0,0,0,0,70.5v7A7.5,7.5,0,0,0,7.5,85h45A7.5,7.5,0,0,0,60,77.5h0v-7a17.91,17.91,0,0,0-3.06-10,17.22,17.22,0,0,0-14.42-7.33ZM55,77.5A2.51,2.51,0,0,1,52.5,80H7.5A2.51,2.51,0,0,1,5,77.5v-7a13,13,0,0,1,2.2-7.25,12.23,12.23,0,0,1,10.27-5.12C21.75,58.13,23.28,60,30,60s8.25-1.87,12.52-1.87a12.23,12.23,0,0,1,10.27,5.12A13,13,0,0,1,55,70.5Zm42.45-18a14.36,14.36,0,0,0-12-6.11C81.09,53.44,80,55,75,55s-6.09-1.56-10.44-1.56a15.24,15.24,0,0,0-6,1.27,15.07,15.07,0,0,1,3.16,4.16,10.25,10.25,0,0,1,2.8-.41C68,58.45,69.25,60,75,60s7-1.56,10.44-1.56a9.36,9.36,0,0,1,7.88,3.91A9.94,9.94,0,0,1,95,67.94v5.81A1.25,1.25,0,0,1,93.77,75H65a22.42,22.42,0,0,1-.25,5h29A6.25,6.25,0,0,0,100,73.75V67.92a14.93,14.93,0,0,0-2.55-8.37Z"/></svg>