<svg id="Layer_1" data-name="Layer 1" xmlns="http://www.w3.org/2000/svg" viewBox="0 0 100 100"><defs><style>.cls-1{fill:#333;}</style></defs><title>xml</title><path class="cls-1" d="M39.67,94.4l-4.34-1.23A1,1,0,0,1,34.6,92v-.07L59,6.32a1,1,0,0,1,1.21-.73h.07l4.34,1.23A1,1,0,0,1,65.35,8V8.1L41,93.67a1,1,0,0,1-1.2.75l-.08,0Z"/><path class="cls-1" d="M26.55,72.65,29.76,69a.86.86,0,0,0-.07-1.21h0L8.67,50l21-17.79A.86.86,0,0,0,29.76,31l-3.21-3.63a.86.86,0,0,0-1.21-.08h0l-25,22A.86.86,0,0,0,.25,50.5l.09.09,25,22.08a.88.88,0,0,0,1.23-.09Z"/><path class="cls-1" d="M74.69,72.72l25-22.08a.86.86,0,0,0,.09-1.21l-.09-.09-25-22.06a.89.89,0,0,0-1.23.07L70.24,31a.86.86,0,0,0,.07,1.21h0L91.33,50l-21,17.79A.86.86,0,0,0,70.24,69l3.21,3.63a.86.86,0,0,0,1.21.12Z"/></svg>