<svg id="Layer_1" data-name="Layer 1" xmlns="http://www.w3.org/2000/svg" viewBox="0 0 100 100"><defs><style>.cls-1{fill:none;}.cls-2{fill:#333;}</style></defs><title>analytical-skills</title><path class="cls-1" d="M25.76,54.48h1.68a8.77,8.77,0,0,0,1.62,2.78l-.83,1.45a1.26,1.26,0,0,0,.28,1.6,11.23,11.23,0,0,0,3.26,1.89,1.26,1.26,0,0,0,1.53-.55l.83-1.45a9,9,0,0,0,3.22,0l.83,1.45a1.26,1.26,0,0,0,1.53.55A11.36,11.36,0,0,0,43,60.31a1.25,1.25,0,0,0,.28-1.6l-.83-1.45a8.77,8.77,0,0,0,1.62-2.78h1.68A1.26,1.26,0,0,0,47,53.42a11.45,11.45,0,0,0,0-3.77,1.25,1.25,0,0,0-1.24-1H44.06a8.77,8.77,0,0,0-1.62-2.78l.83-1.45a1.26,1.26,0,0,0-.28-1.6,11.23,11.23,0,0,0-3.26-1.89,1.26,1.26,0,0,0-1.53.55l-.83,1.45a9,9,0,0,0-3.22,0l-.83-1.45a1.26,1.26,0,0,0-1.53-.55,11.36,11.36,0,0,0-3.26,1.89,1.25,1.25,0,0,0-.28,1.6l.83,1.45a8.77,8.77,0,0,0-1.62,2.78H25.76a1.26,1.26,0,0,0-1.24,1.06,11.44,11.44,0,0,0,0,3.77A1.25,1.25,0,0,0,25.76,54.48Zm12.67-5.62c3,3.91-1.45,8.37-5.37,5.37C30.06,50.31,34.52,45.84,38.44,48.86Z"/><path class="cls-1" d="M47.33,58a21.09,21.09,0,0,0,3.79,5.91,2.15,2.15,0,0,0,2.72.48l2.61-1.51a15.44,15.44,0,0,0,4.93,2.85v3a2.14,2.14,0,0,0,1.76,2.11,20.49,20.49,0,0,0,6.83,0,2.16,2.16,0,0,0,1.8-2.12v-3a15.61,15.61,0,0,0,4.93-2.85l2.61,1.51A2.15,2.15,0,0,0,82,63.88,21.06,21.06,0,0,0,85.83,58a2.15,2.15,0,0,0-.9-2.61l-3-1.51a15.62,15.62,0,0,0,0-5.7l3-1.51A2.16,2.16,0,0,0,85.87,44,21.21,21.21,0,0,0,82,38.1a2.15,2.15,0,0,0-2.72-.48l-2.61,1.51a15.43,15.43,0,0,0-4.93-2.85v-3A2.15,2.15,0,0,0,70,31.15a20.2,20.2,0,0,0-6.82,0,2.16,2.16,0,0,0-1.8,2.12v3a15.6,15.6,0,0,0-4.93,2.85l-2.61-1.5a2.15,2.15,0,0,0-2.72.48A21.18,21.18,0,0,0,47.33,44a2.17,2.17,0,0,0,.94,2.61l3,1.51a15.56,15.56,0,0,0,0,5.7l-3,1.52A2.14,2.14,0,0,0,47.33,58Zm24-11.71c5.32,6.92-2.58,14.81-9.5,9.5C56.52,48.82,64.42,40.92,71.34,46.24Z"/><path class="cls-2" d="M71.34,46.24c-6.92-5.32-14.81,2.58-9.5,9.5C68.76,61.06,76.66,53.16,71.34,46.24Z"/><path class="cls-2" d="M38.44,48.86c-3.91-3-8.37,1.45-5.37,5.37C37,57.23,41.44,52.77,38.44,48.86Z"/><path class="cls-2" d="M23.09,74.15c13.89,1.94,23.08-.61,23.08-.61,5.24,5,17.46,15,38,4.9,17.36-4.8,19.3-21.24,11.44-30.22,1.74-3.47-6.53-24.1-24.5-23.89-11.44-8.47-23.89-9.8-33.29-1.63C26.46,22.59,15,26.06,10,43.32-8.77,53.73.73,82.93,23.09,74.15Zm28.18-26-3-1.51A2.17,2.17,0,0,1,47.33,44a21.18,21.18,0,0,1,3.79-5.9,2.15,2.15,0,0,1,2.72-.48l2.61,1.5a15.6,15.6,0,0,1,4.93-2.85v-3a2.16,2.16,0,0,1,1.8-2.12,20.2,20.2,0,0,1,6.82,0,2.15,2.15,0,0,1,1.77,2.12v3a15.43,15.43,0,0,1,4.93,2.85l2.61-1.51A2.15,2.15,0,0,1,82,38.1,21.21,21.21,0,0,1,85.87,44a2.16,2.16,0,0,1-.94,2.61l-3,1.51a15.62,15.62,0,0,1,0,5.7l3,1.51a2.15,2.15,0,0,1,.9,2.61A21.06,21.06,0,0,1,82,63.88a2.15,2.15,0,0,1-2.72.48l-2.61-1.51a15.61,15.61,0,0,1-4.93,2.85v3A2.16,2.16,0,0,1,70,70.83a20.49,20.49,0,0,1-6.83,0,2.14,2.14,0,0,1-1.76-2.11v-3a15.44,15.44,0,0,1-4.93-2.85l-2.61,1.51a2.15,2.15,0,0,1-2.72-.48A21.09,21.09,0,0,1,47.33,58a2.14,2.14,0,0,1,.94-2.61l3-1.52A15.56,15.56,0,0,1,51.27,48.14ZM24.52,49.66a1.26,1.26,0,0,1,1.24-1.06h1.68a8.77,8.77,0,0,1,1.62-2.78l-.83-1.45a1.25,1.25,0,0,1,.28-1.6,11.36,11.36,0,0,1,3.26-1.89,1.26,1.26,0,0,1,1.53.55l.83,1.45a9,9,0,0,1,3.22,0l.83-1.45a1.26,1.26,0,0,1,1.53-.55A11.23,11.23,0,0,1,43,42.77a1.26,1.26,0,0,1,.28,1.6l-.83,1.45a8.77,8.77,0,0,1,1.62,2.78h1.68a1.25,1.25,0,0,1,1.24,1,11.45,11.45,0,0,1,0,3.77,1.26,1.26,0,0,1-1.24,1.06H44.06a8.77,8.77,0,0,1-1.62,2.78l.83,1.45a1.25,1.25,0,0,1-.28,1.6,11.36,11.36,0,0,1-3.26,1.89,1.26,1.26,0,0,1-1.53-.55l-.83-1.45a9,9,0,0,1-3.22,0l-.83,1.45a1.26,1.26,0,0,1-1.53.55,11.23,11.23,0,0,1-3.26-1.89,1.26,1.26,0,0,1-.28-1.6l.83-1.45a8.77,8.77,0,0,1-1.62-2.78H25.76a1.25,1.25,0,0,1-1.24-1A11.44,11.44,0,0,1,24.52,49.66Z"/></svg>