<svg id="Layer_1" data-name="Layer 1" xmlns="http://www.w3.org/2000/svg" viewBox="0 0 100 100"><defs><style>.cls-1{fill:#333;}</style></defs><title>aws</title><path class="cls-1" d="M28.18,41.82a10.06,10.06,0,0,0,.37,3,17.8,17.8,0,0,0,1.06,2.39,1.45,1.45,0,0,1,.23.76,1.32,1.32,0,0,1-.63,1l-2.1,1.4a1.59,1.59,0,0,1-.86.3,1.53,1.53,0,0,1-1-.47A10.29,10.29,0,0,1,24,48.64a16.15,16.15,0,0,1-1-2,12.29,12.29,0,0,1-9.78,4.59A9.11,9.11,0,0,1,6.6,48.84a8.54,8.54,0,0,1-2.46-6.39,8.56,8.56,0,0,1,3-6.85A12.1,12.1,0,0,1,15.31,33a26.33,26.33,0,0,1,3.53.27c1.23.17,2.49.43,3.82.73V31.57c0-2.53-.53-4.29-1.56-5.32s-2.86-1.53-5.42-1.53a15.13,15.13,0,0,0-3.59.43A26.5,26.5,0,0,0,8.5,26.28a9.54,9.54,0,0,1-1.16.43,2,2,0,0,1-.53.1c-.47,0-.7-.33-.7-1V24.16A2.1,2.1,0,0,1,6.33,23a2.49,2.49,0,0,1,.93-.7,19.15,19.15,0,0,1,4.19-1.5,20.16,20.16,0,0,1,5.19-.63c4,0,6.85.9,8.71,2.69s2.76,4.52,2.76,8.18V41.82Zm-13.5,5.06a10.78,10.78,0,0,0,3.43-.6,7.41,7.41,0,0,0,3.16-2.13A5.28,5.28,0,0,0,22.39,42a11.94,11.94,0,0,0,.33-2.89v-1.4a27.78,27.78,0,0,0-3.06-.57,25.06,25.06,0,0,0-3.13-.2,7.67,7.67,0,0,0-5,1.33A4.64,4.64,0,0,0,10,42.12a4.64,4.64,0,0,0,1.23,3.53,4.61,4.61,0,0,0,3.45,1.22Zm26.71,3.59a1.86,1.86,0,0,1-1.26-.33,2.71,2.71,0,0,1-.7-1.3L31.61,23.13a5.83,5.83,0,0,1-.3-1.33.73.73,0,0,1,.62-.83h3.44a1.84,1.84,0,0,1,1.3.33,2.72,2.72,0,0,1,.67,1.3l5.59,22,5.19-22a2.33,2.33,0,0,1,.63-1.3,2.29,2.29,0,0,1,1.32-.3h2.66a2,2,0,0,1,1.33.33,2.24,2.24,0,0,1,.63,1.3l5.25,22.28L65.7,22.59a2.85,2.85,0,0,1,.67-1.3,2.17,2.17,0,0,1,1.3-.33h3.09a.74.74,0,0,1,.83.83,3.32,3.32,0,0,1-.07.53,4.73,4.73,0,0,1-.23.83l-8,25.71a2.55,2.55,0,0,1-.7,1.3,2.13,2.13,0,0,1-1.26.33H58.45a2,2,0,0,1-1.33-.33,2.36,2.36,0,0,1-.63-1.33L51.33,27.38,46.21,48.8a2.6,2.6,0,0,1-.63,1.33,2.06,2.06,0,0,1-1.33.33Zm42.74.9a22,22,0,0,1-5.12-.6,15.13,15.13,0,0,1-3.82-1.33,2.4,2.4,0,0,1-1-.93,2.35,2.35,0,0,1-.2-.93v-1.7c0-.7.27-1,.76-1a1.88,1.88,0,0,1,.6.1l.83.33a18.09,18.09,0,0,0,3.66,1.16,20,20,0,0,0,4,.4,9,9,0,0,0,4.86-1.1,3.58,3.58,0,0,0,1.73-3.16,3.24,3.24,0,0,0-.9-2.33,8.34,8.34,0,0,0-3.36-1.73L81.26,37a10.14,10.14,0,0,1-5.32-3.39,7.92,7.92,0,0,1-1.66-4.82,7.4,7.4,0,0,1,.9-3.69,8.55,8.55,0,0,1,2.39-2.73A10.56,10.56,0,0,1,81,20.67a14.5,14.5,0,0,1,4.19-.57,16.7,16.7,0,0,1,2.23.13c.76.1,1.46.23,2.16.37a15.32,15.32,0,0,1,1.9.53,7.26,7.26,0,0,1,1.4.6,2.88,2.88,0,0,1,1,.83,1.79,1.79,0,0,1,.3,1.1v1.56c0,.7-.27,1.06-.76,1.06a3.46,3.46,0,0,1-1.26-.4,15.22,15.22,0,0,0-6.39-1.3,8.58,8.58,0,0,0-4.42.93,3.21,3.21,0,0,0-1.56,3,3.14,3.14,0,0,0,1,2.36,9.93,9.93,0,0,0,3.66,1.83l4.72,1.5a10.12,10.12,0,0,1,5.16,3.19A7.53,7.53,0,0,1,95.86,42,8.55,8.55,0,0,1,95,45.88a8.94,8.94,0,0,1-2.43,2.93,10.72,10.72,0,0,1-3.69,1.86,15.82,15.82,0,0,1-4.76.69Z"/><path class="cls-1" d="M90.41,67.53C79.47,75.61,63.57,79.9,49.9,79.9A73.29,73.29,0,0,1,.44,61c-1-.93-.1-2.2,1.13-1.46A99.74,99.74,0,0,0,51.06,72.72,98.76,98.76,0,0,0,88.81,65C90.64,64.17,92.2,66.2,90.41,67.53Z"/><path class="cls-1" d="M95,62.34c-1.4-1.8-9.25-.86-12.8-.43-1.06.13-1.23-.8-.27-1.5,6.25-4.39,16.53-3.13,17.73-1.66s-.33,11.77-6.19,16.7c-.9.76-1.76.37-1.36-.63C93.4,71.52,96.36,64.1,95,62.34Z"/></svg>