<svg id="Layer_1" data-name="Layer 1" xmlns="http://www.w3.org/2000/svg" viewBox="0 0 100 100"><defs><style>.cls-1{fill:#333;}</style></defs><title>fontawesome</title><path class="cls-1" d="M88.79,0H11.21A11.27,11.27,0,0,0,0,11.21V88.79A11.27,11.27,0,0,0,11.21,100H88.79A11.27,11.27,0,0,0,100,88.79V11.21A11.27,11.27,0,0,0,88.79,0ZM78.66,63.46c0,.94-.8,1.34-1.74,1.74-3.73,1.61-7.72,3.06-12,3.06-6,0-8.79-3.73-16-3.73-5.2,0-10.67,1.87-15.07,3.86-.27.13-.54.13-.8.27V78.79a2.61,2.61,0,0,1-.13,1.07v.27a4.43,4.43,0,0,1-4.26,3.19,4.51,4.51,0,0,1-4.53-4.53V30a7.46,7.46,0,1,1,12-5.87A7.11,7.11,0,0,1,33.21,30v4.13a4.76,4.76,0,0,0,1.21-.54A36.78,36.78,0,0,1,48.15,30.4c5.07,0,9.06,1.34,13.59,3.06a7.17,7.17,0,0,0,2.92.54c5.07,0,10.67-3.59,12-3.59a1.93,1.93,0,0,1,2,1.74V63.46Z"/></svg>