<svg id="Layer_1" data-name="Layer 1" xmlns="http://www.w3.org/2000/svg" viewBox="0 0 100 100"><defs><style>.cls-1{fill:#333;}</style></defs><title>globe-americas</title><path class="cls-1" d="M50,0a50,50,0,1,0,50,50A50,50,0,0,0,50,0ZM66.59,72.1l-2.28,2.27a4.82,4.82,0,0,0-1.24,2.16c-.3,1.14-.55,2.29-1,3.4L58.6,89.38a40.29,40.29,0,0,1-8.6.95V84.8c.34-2.54-1.54-7.31-4.56-10.33a6.45,6.45,0,0,1-1.89-4.56V63.45a6.43,6.43,0,0,0-3.32-5.64c-2.9-1.6-7-3.84-9.84-5.26A29.06,29.06,0,0,1,24,48.17L23.85,48a23.14,23.14,0,0,1-3.64-4.18c-1.89-2.78-5-7.34-7-10.31A40.54,40.54,0,0,1,34,13l4.84,2.42a3.23,3.23,0,0,0,4.67-2.89V10.24a40.29,40.29,0,0,1,4.92-.49l5.71,5.71a3.23,3.23,0,0,1,0,4.56l-.95.94-2.08,2.08a1.61,1.61,0,0,0,0,2.28l.95.95a1.61,1.61,0,0,1,0,2.28l-1.61,1.61a1.61,1.61,0,0,1-1.14.47H47.52a1.61,1.61,0,0,0-1.13.46L44.4,33a1.61,1.61,0,0,0-.32,1.88l3.14,6.29a1.61,1.61,0,0,1-1.44,2.33H44.64a1.61,1.61,0,0,1-1.06-.4l-1.87-1.62a3.23,3.23,0,0,0-3.14-.63L32.29,43A2.41,2.41,0,0,0,32,47.44l2.23,1.12A13.65,13.65,0,0,0,40.32,50c2.12,0,4.55,5.5,6.45,6.45H60.23a6.46,6.46,0,0,1,4.56,1.89l2.76,2.76a6.15,6.15,0,0,1,1.8,4.35A9.38,9.38,0,0,1,66.59,72.1ZM84.07,53.68a4.84,4.84,0,0,1-2.85-2l-3.63-5.44a4.83,4.83,0,0,1,0-5.37l3.95-5.92a4.83,4.83,0,0,1,1.86-1.64L86,32A39.06,39.06,0,0,1,90,55.15Z"/></svg>