<?xml version="1.0" encoding="utf-8"?>
<!-- Svg Vector Icons : http://www.onlinewebfonts.com/icon -->
<!DOCTYPE svg PUBLIC "-//W3C//DTD SVG 1.1//EN" "http://www.w3.org/Graphics/SVG/1.1/DTD/svg11.dtd">
<svg version="1.1" xmlns="http://www.w3.org/2000/svg" xmlns:xlink="http://www.w3.org/1999/xlink" x="0px" y="0px" viewBox="0 0 256 256" enable-background="new 0 0 256 256" xml:space="preserve">
<metadata> Svg Vector Icons : http://www.onlinewebfonts.com/icon </metadata>
<g><g><path fill="#000000" d="M164.7,20.8c2.3,0.3,4.5,0.6,6.8,1c29.7,29.3,37.9,85.6,54.2,127.7c6.8,17.1,13.5,34.2,20.3,51.2c-11.7-6.7-35.4-38.7-54.2-30.9c-21,8.7-60.2,76.1-83.2,63.8C104,218.3,93,186,80.6,177.6c-8-5.5-13.4,2-22.3,0c-6.1-1.3-47-33-48.4-38.7c21.9-8.7,43.9-17.4,65.8-26.1c6.8-8,13.5-16.1,20.3-24.2c11.4-7.2,23-7.2,30.9-17.4C140,54.6,148.6,34.3,164.7,20.8z"/></g></g>
</svg>