<svg id="Layer_1" data-name="Layer 1" xmlns="http://www.w3.org/2000/svg" viewBox="0 0 100 100"><defs><style>.cls-1{fill:#333;}</style></defs><title>orm</title><path class="cls-1" d="M84.74,19.14,68.36,2.75A9.37,9.37,0,0,0,61.74,0H21.88a9.4,9.4,0,0,0-9.37,9.39V90.63A9.38,9.38,0,0,0,21.88,100H78.12a9.38,9.38,0,0,0,9.37-9.37V25.78A9.42,9.42,0,0,0,84.74,19.14Zm-4.41,4.43A3.07,3.07,0,0,1,81.15,25H62.5V6.37A3.07,3.07,0,0,1,64,7.19ZM78.12,93.75H21.88a3.13,3.13,0,0,1-3.12-3.12V9.39a3.13,3.13,0,0,1,3.12-3.12H56.25V26.58a4.68,4.68,0,0,0,4.67,4.69H81.24V90.63A3.13,3.13,0,0,1,78.12,93.75Z"/><path class="cls-1" d="M67.5,45.71v3.57C67.5,52.43,59.66,55,50,55s-17.5-2.57-17.5-5.71V45.71C32.5,42.57,40.34,40,50,40S67.5,42.57,67.5,45.71Zm0,8v8c0,3.15-7.84,5.71-17.5,5.71s-17.5-2.57-17.5-5.71v-8C36.26,56.3,43.14,57.5,50,57.5s13.74-1.16,17.5-3.75Zm0,12.5v8C67.5,77.43,59.66,80,50,80s-17.5-2.57-17.5-5.71v-8C36.26,68.84,43.14,70,50,70s13.74-1.16,17.5-3.75Z"/></svg>