<svg id="Layer_1" data-name="Layer 1" xmlns="http://www.w3.org/2000/svg" viewBox="0 0 100 100"><defs><style>.cls-1{fill:none;}.cls-2{fill:#333;}</style></defs><title>photoshop</title><path class="cls-1" d="M24.67,69.38H31c.38,0,.5-.17.5-.5v-16c1.13,0,1.67.08,3.25.08,9.42,0,17.08-4.54,17.08-15.12,0-8.13-4.5-14.46-16-14.46-4.12,0-8.08.08-10.75.21-.33,0-.92.21-.92.5V68.88C24.17,69.25,24.33,69.38,24.67,69.38Zm6.92-39.25c.75,0,2.33-.12,4-.12,5.54,0,8.83,2.67,8.83,8,0,6.63-4.58,8.33-9.46,8.33-1.67,0-2.42,0-3.37-.08Z"/><path class="cls-1" d="M56.25,68.25A18.13,18.13,0,0,0,64.79,70c6.88,0,12-3.58,12-10.25,0-4.46-2-7.5-8.58-10.67C63.75,46.83,63,45.79,63,44.29s1.13-3,4.42-3a14.07,14.07,0,0,1,7.25,1.88c.42.13.63-.08.63-.42V37a.92.92,0,0,0-.42-.83A19.16,19.16,0,0,0,67.42,35c-7.29,0-11.5,4.46-11.5,9.83,0,4.79,2.46,7.67,8.37,10.5,4.21,2.17,5.17,3.5,5.17,5,0,1.88-1.37,3.25-4.67,3.25a15.47,15.47,0,0,1-8.37-2.46c-.29-.21-.5-.08-.5.33v6.12C55.92,67.92,56,68.13,56.25,68.25Z"/><path class="cls-2" d="M44.42,38c0-5.29-3.29-8-8.83-8-1.67,0-3.25.08-4,.13V46.21c1,.08,1.71.08,3.37.08C39.83,46.29,44.42,44.58,44.42,38Z"/><path class="cls-2" d="M0,100H100V0H0ZM55.92,61.46c0-.42.21-.54.5-.33a15.47,15.47,0,0,0,8.37,2.46c3.29,0,4.67-1.37,4.67-3.25,0-1.5-1-2.83-5.17-5-5.92-2.83-8.37-5.71-8.37-10.5,0-5.37,4.21-9.83,11.5-9.83a19.16,19.16,0,0,1,7.46,1.17.92.92,0,0,1,.42.83v5.71c0,.33-.21.54-.62.42a14.07,14.07,0,0,0-7.25-1.87c-3.29,0-4.42,1.67-4.42,3s.75,2.54,5.17,4.83c6.54,3.17,8.58,6.21,8.58,10.67,0,6.67-5.08,10.25-12,10.25a18.13,18.13,0,0,1-8.54-1.79c-.29-.12-.33-.33-.33-.67ZM24.17,24.08c0-.29.58-.5.92-.5,2.67-.12,6.63-.21,10.75-.21,11.54,0,16,6.33,16,14.46C51.88,48.42,44.21,53,34.79,53c-1.58,0-2.12-.08-3.25-.08v16c0,.33-.12.5-.5.5H24.67c-.33,0-.5-.12-.5-.5Z"/></svg>