<svg id="Layer_1" data-name="Layer 1" xmlns="http://www.w3.org/2000/svg" viewBox="0 0 100 100"><defs><style>.cls-1{fill:#333;}</style></defs><title>rabbitmq</title><path id="Shape" class="cls-1" d="M92.5,40.58H63a4.81,4.81,0,0,1-4.16-4.81v-31A4.77,4.77,0,0,0,54.07,0H43.69a4.77,4.77,0,0,0-4.77,4.77h0V36.09a4.87,4.87,0,0,1-4.42,4.49H26.77a4.83,4.83,0,0,1-4.18-4.49V4.77A4.77,4.77,0,0,0,17.82,0H7.48A4.77,4.77,0,0,0,2.71,4.77h0V95.23A4.77,4.77,0,0,0,7.48,100h85a4.77,4.77,0,0,0,4.77-4.77V45.35A4.79,4.79,0,0,0,92.5,40.58ZM78.89,74.79a4.77,4.77,0,0,1-4.77,4.77H63.78A4.77,4.77,0,0,1,59,74.8h0V65a4.77,4.77,0,0,1,4.77-4.77H74.12A4.77,4.77,0,0,1,78.89,65Z"/></svg>