<svg height="512" width="512" xmlns="http://www.w3.org/2000/svg"><path d="m127.7110825 34.4531364c-170.2814789 98.1692047-170.2814026 344.9245911 0 443.0937195s384.2889175-25.208477 384.2889175-221.5468254-214.0075073-319.7160339-384.2889175-221.5468941zm48.6630477 374.1001168c-122.139801 0-19.929306-137.3335266-104.7761612-134.9657288v-36.7011261c80.0386734 9.9306183-15.3906517-146.2125549 104.1839828-132.5976257v28.4137802c-66.6934204 1.5785828-.3946075 86.8199158-60.3792725 122.5344086 60.3792725 39.6608887-3.1571045 130.0325317 60.9714508 120.1665955v33.1496963zm-4.2858123-133.4223328c-13.7811279-7.9449768-13.7811279-27.9151764 0-35.8600769 13.7810516-7.9449921 31.1009064 2.0401154 31.1009064 17.9299927s-17.3198548 25.875-31.1009064 17.9300842zm73.5291443 0c-13.7810669-7.9449768-13.7810669-27.9151764 0-35.8600769 13.7810669-7.9449921 31.1008911 2.0401154 31.1008911 17.9299927s-17.3198242 25.875-31.1008911 17.9300842zm73.5291442 0c-13.7810669-7.9449768-13.7810669-27.9151764 0-35.8600769 13.7810669-7.9449921 31.1009827 2.0401154 31.1009827 17.9299927s-17.3199158 25.875-31.1009827 17.9300842zm16.4793091 133.4223328v-33.1496887c64.1285706 9.8659363.5921631-80.5057068 60.9714355-120.1665955-59.9846497-35.7144928 6.3141479-120.9558258-60.3792725-122.5344086v-28.4137802c119.574646-13.6149292 24.1453247 142.5282288 104.1839905 132.5976257v36.7011261c-84.8468627-2.3678054 17.3636476 134.9657212-104.7761535 134.9657212z"/></svg>