<svg id="Layer_1" data-name="Layer 1" xmlns="http://www.w3.org/2000/svg" viewBox="0 0 100 100"><defs><style>.cls-1{fill:#333;}</style></defs><title>symfony</title><path class="cls-1" d="M50,0a50,50,0,1,0,50,50A50,50,0,0,0,50,0ZM77,28.94c-2.33.08-3.93-1.3-4-3.4a3.58,3.58,0,0,1,.7-2.23c.51-1,.61-1.13.61-1.57,0-1.35-2-1.35-2.6-1.35-7.51.24-9.49,10.37-11.09,18.61l-.77,4.34c4.32.63,7.39-.15,9.1-1.26,2.41-1.56-.68-3.17-.29-5A3.54,3.54,0,0,1,72,34.41c1.83,0,3.1,1.86,3.1,3.79-.07,3.19-4.31,7.58-12.78,7.4a27.68,27.68,0,0,1-2.87-.2l-1.6,8.82C56.43,60.9,54.52,70,47.72,78,41.88,85,36,86,33.2,86.18c-5,.19-8.26-2.47-8.38-6a5.28,5.28,0,0,1,4.9-5.36h.1a4.24,4.24,0,0,1,4.46,4,2.68,2.68,0,0,1-1.56,2.81c-.43.34-1.06.7-1.06,1.47a1.29,1.29,0,0,0,1.47,1,7.82,7.82,0,0,0,4.47-1.81c4.84-4,6.7-11.06,9.14-23.86l.51-3.1a137.46,137.46,0,0,1,3.16-13.43c-3.36-2.57-5.41-5.76-10-7-3.14-.85-5.06-.12-6.41,1.58a4.65,4.65,0,0,0,.53,6.25l2.55,2.82c3.12,3.61,4.83,6.42,4.19,10.2-1,6.05-8.21,10.66-16.71,8.05-7.26-2.2-8.61-7.37-7.74-10.2.77-2.49,2.61-3,4.68-2.37s2.88,3.16,2.29,5.1a7.51,7.51,0,0,1-.39,1A13.31,13.31,0,0,0,22.52,59c-.46,1.47,1.62,2.55,3.07,3a5.67,5.67,0,0,0,7.21-3.33,4.67,4.67,0,0,0-1.41-4.74l-3.07-3.29c-1.42-1.57-4.51-5.93-3-10.84a10.51,10.51,0,0,1,3.59-5.22,12.93,12.93,0,0,1,11.72-2.14c5,1.45,7.45,4.77,10.58,7.34A43.18,43.18,0,0,1,59,25.35c3.3-3.85,7.73-6.67,12.81-6.85s8.91,2.13,9.06,5.78C81,25.83,80.08,28.84,77,28.94Z"/></svg>